Coordinates
version=1
nRows=5
nColumns=63
inDegrees=yes

Units are S.I. units (second, meters, Newtons, ...)
If the header above contains a line with 'inDegrees', this indicates whether rotational values are in degrees (yes) or radians (no).

endheader
time	pelvis_tilt	pelvis_list	pelvis_rotation	pelvis_tx	pelvis_ty	pelvis_tz	hip_flexion_r	hip_adduction_r	hip_rotation_r	knee_angle_r	knee_angle_r_beta	ankle_angle_r	subtalar_angle_r	mtp_angle_r	hip_flexion_l	hip_adduction_l	hip_rotation_l	knee_angle_l	knee_angle_l_beta	ankle_angle_l	subtalar_angle_l	mtp_angle_l	L5_S1_Flex_Ext	L5_S1_Lat_Bending	L5_S1_axial_rotation	L4_L5_Flex_Ext	L4_L5_Lat_Bending	L4_L5_axial_rotation	L3_L4_Flex_Ext	L3_L4_Lat_Bending	L3_L4_axial_rotation	L2_L3_Flex_Ext	L2_L3_Lat_Bending	L2_L3_axial_rotation	L1_L2_Flex_Ext	L1_L2_Lat_Bending	L1_L2_axial_rotation	L1_T12_Flex_Ext	L1_T12_Lat_Bending	L1_T12_axial_rotation	Abs_r3	Abs_r2	Abs_r1	Abs_t1	Abs_t2	neck_flexion	neck_bending	neck_rotation	arm_flex_r	arm_add_r	arm_rot_r	elbow_flex_r	pro_sup_r	wrist_flex_r	wrist_dev_r	arm_flex_l	arm_add_l	arm_rot_l	elbow_flex_l	pro_sup_l	wrist_flex_l	wrist_dev_l
      0.00000000	     -1.99631945	     -4.02054859	     85.16515993	      0.31145479	      0.81101531	      0.57913790	      2.03278935	     -2.62907809	     17.26291753	      2.10313043	      0.03670655	     25.32489794	    -10.72177971	      0.00000000	      1.30455003	      2.16266470	     15.27880061	      1.15679066	      0.02018981	     23.67648992	    -16.73010863	      0.00000000	      0.01436278	      0.01306610	      1.69757508	      0.02667311	      0.01737792	      1.80367352	      0.02359661	      0.03176892	      1.80367352	      0.01641522	      0.03176892	      1.48537820	      0.01333727	      0.02664440	      1.37927975	      0.00820689	      0.02023939	      1.27318131	      0.10259187	      0.14780637	      9.44140334	      0.00000000	      0.00000000	     23.52008414	      1.13869390	     -2.92542295	      7.01397994	    -11.87408924	     60.89945799	     44.62702322	     39.64305269	      5.19580875	      7.47535976	     14.58641963	     -8.28060038	     70.72868699	     42.28020358	     74.76128167	     12.38201772	     -4.75745294
      0.02325581	     -1.75861233	     -4.39213855	     86.58392061	      0.30954624	      0.81070107	      0.57946430	      2.04159279	     -2.38479943	     17.92099980	      1.95701595	      0.03415637	     23.38467435	    -13.80144263	      0.00000000	      1.99640365	      2.01833947	     15.60852759	      1.74424234	      0.03044277	     23.70246336	    -16.23698306	      0.00000000	      0.04749186	      0.01575258	      1.59978745	      0.08819713	      0.02095093	      1.69977417	      0.07802437	      0.03830082	      1.69977417	      0.05427844	      0.03830082	      1.39981402	      0.04410094	      0.03212266	      1.29982731	      0.02713685	      0.02440074	      1.19984059	      0.33922960	      0.17819630	      8.89753789	      0.00000000	      0.00000000	     24.03172913	      0.95060386	     -4.49737695	      5.57919903	    -12.07462318	     56.70859115	     45.23368015	     66.45470807	      6.24014440	      1.43896579	     15.16125279	     -8.63200620	     73.16643608	     43.19519052	     83.82149212	     10.94785340	     -6.58739213
      0.04651163	     -1.46095440	     -4.60421086	     88.02535029	      0.30753028	      0.81078467	      0.57996558	      1.98764229	     -2.11371290	     17.14608960	      1.84354815	      0.03217599	     22.39304350	    -14.68384842	      0.00000000	      2.60006503	      1.84069933	     15.99357241	      2.41245094	      0.04210521	     23.81561981	    -15.58773992	      0.00000000	      0.06424680	      0.03250102	      1.43762574	      0.11931274	      0.04322636	      1.52747735	      0.10555107	      0.07902299	      1.52747735	      0.07342767	      0.07902299	      1.25792252	      0.05965958	      0.06627608	      1.16807091	      0.03671062	      0.05034408	      1.07821930	      0.45890849	      0.36765807	      7.99564307	      0.00000000	      0.00000000	     24.39718917	      0.73460942	     -5.40459947	      5.12067691	    -12.39184947	     55.13121610	     46.09650371	     82.34913062	      4.49468430	     -2.86458903	     15.67733624	     -9.04143032	     75.25271403	     44.09562436	     86.45208269	      9.15918486	     -7.41825257
      0.06976744	     -1.12236096	     -4.71722741	     89.42914645	      0.30550779	      0.81102024	      0.58047208	      1.89951719	     -1.80444739	     16.10537690	      1.73258054	      0.03023923	     21.87317937	    -15.04107329	      0.00000000	      3.11043461	      1.62489675	     16.53222639	      3.05172450	      0.05326264	     23.95568781	    -14.94874087	      0.00000000	      0.06837354	      0.05979378	      1.24894584	      0.12697650	      0.07952573	      1.32700496	      0.11233089	      0.14538259	      1.32700496	      0.07814412	      0.14538259	      1.09282761	      0.06349167	      0.12193147	      1.01476850	      0.03906864	      0.09262056	      0.93670938	      0.48838535	      0.67639919	      6.94626210	      0.00000000	      0.00000000	     24.84784960	      0.36006435	     -5.92964913	      5.12113633	    -12.72058177	     55.18981550	     46.76053422	     83.39403550	      3.68715260	     -3.91621208	     15.62256910	     -9.45538531	     75.12852143	     44.96645488	     87.12788372	      8.28818466	     -7.47042968
      0.09302326	     -0.89063402	     -4.70833197	     90.70417672	      0.30387403	      0.81148466	      0.58070252	      1.71817279	     -1.60297294	     14.62288284	      1.59445128	      0.02782842	     21.92632600	    -14.45522521	      0.00000000	      3.42397876	      1.49053854	     16.78586596	      3.54509361	      0.06187356	     24.10136380	    -13.96169328	      0.00000000	      0.06685472	      0.07667554	      1.02772888	      0.12415591	      0.10197847	      1.09196194	      0.10983562	      0.18642891	      1.09196194	      0.07640826	      0.18642891	      0.89926277	      0.06208130	      0.15635677	      0.83502972	      0.03820079	      0.11877042	      0.77079666	      0.47753660	      0.86736907	      5.71591973	      0.00000000	      0.00000000	     24.97412918	      0.22792634	     -5.80735605	      5.69244013	    -12.82902785	     56.19974409	     46.87050952	     84.42481342	      2.61602419	     -4.91177244	     14.93809014	    -10.07868644	     73.07335336	     45.99167342	     87.03859653	      7.91429191	     -7.09492247
